<svg width="1174" height="372" viewBox="0 0 1174 372" fill="none" xmlns="http://www.w3.org/2000/svg">
<path d="M290.92 78.28C290.92 83.48 289.1 87.9 285.46 91.54C281.82 95.18 277.4 97 272.2 97C267 97 262.58 95.18 258.94 91.54C255.3 87.9 253.48 83.48 253.48 78.28C253.48 73.08 255.3 68.66 258.94 65.02C262.58 61.38 267 59.56 272.2 59.56C277.4 59.56 281.82 61.38 285.46 65.02C289.1 68.66 290.92 73.08 290.92 78.28ZM287.8 253H256.6V112.6H287.8V253ZM420.981 175.78C420.981 170.407 419.941 165.38 417.861 160.7C415.954 155.847 413.268 151.687 409.801 148.22C406.508 144.58 402.521 141.72 397.841 139.64C393.161 137.56 388.221 136.52 383.021 136.52C377.821 136.52 372.881 137.56 368.201 139.64C363.521 141.72 359.448 144.58 355.981 148.22C352.688 151.687 350.001 155.847 347.921 160.7C346.014 165.38 345.061 170.407 345.061 175.78V253H313.861V177.6C313.861 168.067 315.681 159.14 319.321 150.82C322.961 142.327 327.901 134.96 334.141 128.72C340.381 122.48 347.661 117.54 355.981 113.9C364.474 110.26 373.488 108.44 383.021 108.44C392.554 108.44 401.481 110.26 409.801 113.9C418.294 117.54 425.661 122.48 431.901 128.72C438.141 134.96 443.081 142.327 446.721 150.82C450.361 159.14 452.181 168.067 452.181 177.6V253H420.981V175.78ZM469.94 182.8C469.94 172.573 471.933 162.953 475.92 153.94C479.907 144.927 485.367 137.04 492.3 130.28C499.233 123.52 507.293 118.233 516.48 114.42C525.84 110.433 535.807 108.44 546.38 108.44C556.953 108.44 566.833 110.433 576.02 114.42C585.38 118.233 593.527 123.52 600.46 130.28C607.394 137.04 612.854 144.927 616.84 153.94C620.827 162.953 622.82 172.573 622.82 182.8V299.8H591.62V237.14C586.073 243.207 579.4 248.06 571.6 251.7C563.8 255.34 555.393 257.16 546.38 257.16C535.807 257.16 525.84 255.253 516.48 251.44C507.293 247.453 499.233 242.08 492.3 235.32C485.367 228.56 479.907 220.673 475.92 211.66C471.933 202.647 469.94 193.027 469.94 182.8ZM501.14 182.8C501.14 189.213 502.353 195.28 504.78 201C507.207 206.547 510.5 211.4 514.66 215.56C518.82 219.72 523.673 223.013 529.22 225.44C534.767 227.867 540.66 229.08 546.9 229.08C553.14 229.08 559.033 227.867 564.58 225.44C570.127 223.013 574.98 219.72 579.14 215.56C583.3 211.4 586.593 206.547 589.02 201C591.447 195.28 592.66 189.213 592.66 182.8C592.66 176.387 591.447 170.407 589.02 164.86C586.593 159.14 583.3 154.2 579.14 150.04C574.98 145.88 570.127 142.587 564.58 140.16C559.033 137.733 553.14 136.52 546.9 136.52C540.66 136.52 534.767 137.733 529.22 140.16C523.673 142.587 518.82 145.88 514.66 150.04C510.5 154.2 507.207 159.14 504.78 164.86C502.353 170.407 501.14 176.387 501.14 182.8ZM672.346 189.56C672.346 194.933 673.299 200.047 675.206 204.9C677.286 209.753 679.973 214 683.266 217.64C686.733 221.107 690.719 223.88 695.226 225.96C699.906 228.04 704.846 229.08 710.046 229.08C715.246 229.08 720.099 228.04 724.606 225.96C729.286 223.88 733.273 221.107 736.566 217.64C740.033 214 742.719 209.753 744.626 204.9C746.706 200.047 747.746 194.933 747.746 189.56V112.6H778.946V188.26C778.946 197.793 777.126 206.72 773.486 215.04C769.846 223.36 764.906 230.64 758.666 236.88C752.426 243.12 745.146 248.06 736.826 251.7C728.506 255.34 719.579 257.16 710.046 257.16C700.513 257.16 691.586 255.34 683.266 251.7C674.946 248.06 667.666 243.12 661.426 236.88C655.186 230.64 650.246 223.36 646.606 215.04C642.966 206.72 641.146 197.793 641.146 188.26V112.6H672.346V189.56ZM945.698 209.58C942.924 216.513 939.111 222.927 934.258 228.82C929.578 234.54 924.118 239.567 917.878 243.9C911.638 248.06 904.704 251.267 897.078 253.52C889.624 255.947 881.824 257.16 873.678 257.16C863.104 257.16 853.138 255.253 843.778 251.44C834.418 247.453 826.271 242.08 819.338 235.32C812.404 228.56 806.858 220.673 802.698 211.66C798.711 202.647 796.718 193.027 796.718 182.8C796.718 172.573 798.711 162.953 802.698 153.94C806.858 144.927 812.404 137.04 819.338 130.28C826.271 123.52 834.418 118.233 843.778 114.42C853.138 110.433 863.104 108.44 873.678 108.44C884.424 108.44 894.391 110.433 903.578 114.42C912.938 118.233 921.084 123.52 928.018 130.28C935.124 137.04 940.671 144.927 944.658 153.94C948.644 162.953 950.638 172.573 950.638 182.8C950.638 186.267 950.378 189.733 949.858 193.2H829.218C830.431 198.4 832.424 203.167 835.198 207.5C837.971 211.833 841.264 215.647 845.078 218.94C849.064 222.06 853.484 224.573 858.338 226.48C863.191 228.213 868.304 229.08 873.678 229.08C881.478 229.08 888.671 227.347 895.258 223.88C901.844 220.24 907.131 215.473 911.118 209.58H945.698ZM873.678 136.52C868.478 136.52 863.538 137.387 858.858 139.12C854.178 140.68 849.931 142.933 846.118 145.88C842.304 148.827 838.924 152.38 835.978 156.54C833.204 160.527 831.124 164.947 829.738 169.8H917.618C916.231 164.947 914.151 160.527 911.378 156.54C908.604 152.38 905.224 148.827 901.238 145.88C897.424 142.933 893.178 140.68 888.498 139.12C883.818 137.387 878.878 136.52 873.678 136.52ZM997.019 211.14C997.019 216.513 999.272 221.107 1003.78 224.92C1008.29 228.733 1013.83 230.64 1020.42 230.64C1027.01 230.64 1032.55 228.82 1037.06 225.18C1041.57 221.367 1043.82 216.86 1043.82 211.66C1043.82 207.153 1041.91 203.34 1038.1 200.22C1034.29 196.927 1029.09 194.587 1022.5 193.2C1015.05 191.813 1008.03 189.907 1001.44 187.48C994.852 185.053 989.046 182.107 984.019 178.64C979.166 175 975.266 170.927 972.319 166.42C969.546 161.913 968.159 156.887 968.159 151.34C968.159 145.447 969.372 139.9 971.799 134.7C974.399 129.5 977.866 124.993 982.199 121.18C986.706 117.193 991.992 114.073 998.059 111.82C1004.13 109.567 1010.63 108.44 1017.56 108.44C1024.67 108.44 1031.34 109.653 1037.58 112.08C1043.99 114.333 1049.54 117.453 1054.22 121.44C1058.9 125.427 1062.63 130.107 1065.4 135.48C1068.17 140.853 1069.56 146.573 1069.56 152.64H1038.36C1038.36 147.613 1036.28 143.453 1032.12 140.16C1028.13 136.693 1023.28 134.96 1017.56 134.96C1012.53 134.96 1008.2 136.433 1004.56 139.38C1001.09 142.327 999.359 145.88 999.359 150.04C999.359 152.467 1000.31 154.72 1002.22 156.8C1004.13 158.707 1006.64 160.527 1009.76 162.26C1013.05 163.82 1016.69 165.207 1020.68 166.42C1024.84 167.633 1029.09 168.673 1033.42 169.54C1038.97 170.58 1044.25 172.227 1049.28 174.48C1054.31 176.56 1058.73 179.333 1062.54 182.8C1066.35 186.093 1069.39 190.08 1071.64 194.76C1073.89 199.267 1075.02 204.467 1075.02 210.36C1075.02 216.773 1073.55 222.84 1070.6 228.56C1067.83 234.28 1063.93 239.307 1058.9 243.64C1054.05 247.8 1048.33 251.093 1041.74 253.52C1035.15 255.947 1028.05 257.16 1020.42 257.16C1012.97 257.16 1005.86 255.947 999.099 253.52C992.512 251.093 986.706 247.8 981.679 243.64C976.826 239.48 972.926 234.627 969.979 229.08C967.206 223.533 965.819 217.553 965.819 211.14H997.019ZM1164.11 257.16H1160.21C1150.85 257.16 1142.01 255.427 1133.69 251.96C1125.54 248.32 1118.44 243.467 1112.37 237.4C1106.3 231.333 1101.45 224.227 1097.81 216.08C1094.34 207.76 1092.61 198.92 1092.61 189.56V65.8H1123.81V112.6H1164.11V139.64H1123.81V190.08C1123.81 195.453 1124.85 200.567 1126.93 205.42C1129.01 210.1 1131.78 214.173 1135.25 217.64C1138.72 221.107 1142.79 223.88 1147.47 225.96C1152.32 228.04 1157.44 229.08 1162.81 229.08H1164.11V257.16Z" fill="black"/>
<path fill-rule="evenodd" clip-rule="evenodd" d="M231 165C231 221.885 184.885 268 128 268C107.668 268 88.7112 262.109 72.7447 251.94L98.1709 221.638C107.078 226.339 117.228 229 128 229C163.346 229 192 200.346 192 165C192 129.654 163.346 101 128 101C92.6538 101 64 129.654 64 165C64 179.801 69.0243 193.428 77.4604 204.27L52.0401 234.565C35.2475 216.238 25 191.816 25 165C25 108.115 71.1147 62 128 62C184.885 62 231 108.115 231 165Z" fill="black"/>
<path d="M24.5002 309L98.0002 221.5L109.5 259.5L24.5001 361.5L24.5002 309Z" fill="black"/>
<circle cx="128" cy="165" r="37" fill="black"/>
<path d="M25 266L77.5 204.5L25 163V266Z" fill="black"/>
</svg>
