<svg width="231" height="310" viewBox="0 0 231 310" fill="none" xmlns="http://www.w3.org/2000/svg">
<path fill-rule="evenodd" clip-rule="evenodd" d="M231 103C231 159.885 184.885 206 128 206C107.668 206 88.7112 200.109 72.7447 189.94L98.1709 159.638C107.078 164.339 117.228 167 128 167C163.346 167 192 138.346 192 103C192 67.6538 163.346 39 128 39C92.6538 39 64 67.6538 64 103C64 117.801 69.0243 131.428 77.4604 142.27L52.0401 172.565C35.2475 154.238 25 129.816 25 103C25 46.1147 71.1147 0 128 0C184.885 0 231 46.1147 231 103Z" fill="black"/>
<path d="M24.5002 247L98.0002 159.5L109.5 197.5L24.5001 299.5L24.5002 247Z" fill="black"/>
<circle cx="128" cy="103" r="37" fill="black"/>
<path d="M25 204L77.5 142.5L25 101V204Z" fill="black"/>
</svg>
