<svg width="106" height="183" viewBox="0 0 106 183" fill="none" xmlns="http://www.w3.org/2000/svg">
<path fill-rule="evenodd" clip-rule="evenodd" d="M62.6494 67.8469C58.2941 65.9972 47.1367 62.5712 47.1367 46.245C47.1367 29.9189 74.1726 -4.83904 89.2685 0.76983C104.364 6.3787 97.8449 48.5561 89.2685 60.5958C80.6921 72.6355 67.0048 69.6966 62.6494 67.8469Z" fill="#C5DDF0"/>
<path d="M54.7751 146.546H53.6675C53.6675 93.2844 63.5017 49.9853 83.1817 16.6551L84.1354 17.2182C64.5657 50.3617 54.7751 93.469 54.7751 146.546Z" fill="#7297C4"/>
<path fill-rule="evenodd" clip-rule="evenodd" d="M40.948 107.074C48.1173 104.124 58.3529 92.3411 50.9094 75.5646C43.4659 58.7881 17.1423 37.7779 4.73734 48.5584C-7.66763 59.3389 7.33404 94.7109 15.0723 102.991C22.8105 111.271 33.7787 110.024 40.948 107.074Z" fill="#C5DDF0"/>
<path d="M46.2034 146.548L45.0958 146.543C45.265 113.062 36.25 86.3032 18.0586 66.2386L18.8791 65.4946C37.2684 85.7775 46.3739 112.805 46.2034 146.548Z" fill="#7297C4"/>
<path fill-rule="evenodd" clip-rule="evenodd" d="M70.9856 117.642C66.96 114.617 60.955 110.548 66.2206 97.0487C71.4863 83.5493 95.1602 70.2041 103.037 77.7519C110.914 85.2998 101.577 111.205 92.6179 118.247C83.6588 125.289 75.0112 120.668 70.9856 117.642Z" fill="#C5DDF0"/>
<path d="M64.5031 146.644L63.4127 146.45C67.8545 121.521 77.4734 101.648 92.2727 86.8458L93.056 87.6289C78.4258 102.262 68.907 121.928 64.5031 146.644Z" fill="#7297C4"/>
<path fill-rule="evenodd" clip-rule="evenodd" d="M25.8333 139.751H85.4078V176.423C85.4078 179.909 82.582 182.735 79.0963 182.735H32.1448C28.659 182.735 25.8333 179.909 25.8333 176.423V139.751Z" fill="url(#paint0_linear_69_2042)"/>
<mask id="mask0_69_2042" style="mask-type:luminance" maskUnits="userSpaceOnUse" x="25" y="139" width="61" height="44">
<path fill-rule="evenodd" clip-rule="evenodd" d="M25.8333 139.751H85.4078V176.423C85.4078 179.909 82.582 182.735 79.0963 182.735H32.1448C28.659 182.735 25.8333 179.909 25.8333 176.423V139.751Z" fill="white"/>
</mask>
<g mask="url(#mask0_69_2042)">
<path d="M23.4125 148.565V147.457H86.7844V148.565H23.4125Z" fill="#7297C4"/>
<path d="M23.4121 155.957V154.85H86.784V155.957H23.4121Z" fill="#7297C4"/>
</g>
<defs>
<linearGradient id="paint0_linear_69_2042" x1="27.2169" y1="109.153" x2="-27.1423" y2="203.058" gradientUnits="userSpaceOnUse">
<stop stop-color="#CBDDEE"/>
<stop offset="1" stop-color="#B8D0E6"/>
<stop offset="1" stop-color="#B8D0E6"/>
</linearGradient>
</defs>
</svg>
