<svg width="83" height="19" viewBox="0 0 83 19" fill="none" xmlns="http://www.w3.org/2000/svg">
<g id="Manila.">
<path id="Vector" d="M80.4492 18.176C79.7892 18.176 79.2465 17.9853 78.8212 17.604C78.4105 17.208 78.2052 16.724 78.2052 16.152C78.2052 15.5653 78.4105 15.074 78.8212 14.678C79.2465 14.282 79.7892 14.084 80.4492 14.084C81.0945 14.084 81.6225 14.282 82.0332 14.678C82.4585 15.074 82.6712 15.5653 82.6712 16.152C82.6712 16.724 82.4585 17.208 82.0332 17.604C81.6225 17.9853 81.0945 18.176 80.4492 18.176Z" fill="url(#paint0_linear_210_2329)"/>
<path id="Vector_2" d="M63.0095 11.8399C63.0095 10.5785 63.2442 9.47119 63.7135 8.51785C64.1975 7.56452 64.8502 6.83119 65.6715 6.31785C66.4929 5.80452 67.4095 5.54785 68.4215 5.54785C69.2869 5.54785 70.0422 5.72385 70.6875 6.07585C71.3475 6.42785 71.8535 6.88985 72.2055 7.46185V5.72385H75.9675V17.9999H72.2055V16.2619C71.8389 16.8339 71.3255 17.2959 70.6655 17.6479C70.0202 17.9999 69.2649 18.1759 68.3995 18.1759C67.4022 18.1759 66.4929 17.9192 65.6715 17.4059C64.8502 16.8779 64.1975 16.1372 63.7135 15.1839C63.2442 14.2159 63.0095 13.1012 63.0095 11.8399ZM72.2055 11.8619C72.2055 10.9232 71.9415 10.1825 71.4135 9.63985C70.9002 9.09718 70.2695 8.82585 69.5215 8.82585C68.7735 8.82585 68.1355 9.09718 67.6075 9.63985C67.0942 10.1679 66.8375 10.9012 66.8375 11.8399C66.8375 12.7785 67.0942 13.5265 67.6075 14.0839C68.1355 14.6265 68.7735 14.8979 69.5215 14.8979C70.2695 14.8979 70.9002 14.6265 71.4135 14.0839C71.9415 13.5412 72.2055 12.8005 72.2055 11.8619Z" fill="#161616"/>
<path id="Vector_3" d="M61.0313 1.71997V18H57.2693V1.71997H61.0313Z" fill="#161616"/>
<path id="Vector_4" d="M52.673 4.44793C52.013 4.44793 51.4703 4.25726 51.045 3.87593C50.6343 3.47993 50.429 2.99593 50.429 2.42393C50.429 1.83726 50.6343 1.35326 51.045 0.97193C51.4703 0.57593 52.013 0.37793 52.673 0.37793C53.3183 0.37793 53.8463 0.57593 54.257 0.97193C54.6823 1.35326 54.895 1.83726 54.895 2.42393C54.895 2.99593 54.6823 3.47993 54.257 3.87593C53.8463 4.25726 53.3183 4.44793 52.673 4.44793ZM54.543 5.72393V17.9999H50.781V5.72393H54.543Z" fill="#161616"/>
<path id="Vector_5" d="M43.4368 5.59204C44.8741 5.59204 46.0181 6.06137 46.8688 7.00004C47.7341 7.92404 48.1668 9.20004 48.1668 10.828V18H44.4268V11.334C44.4268 10.5127 44.2141 9.87471 43.7888 9.42004C43.3635 8.96537 42.7915 8.73804 42.0728 8.73804C41.3541 8.73804 40.7821 8.96537 40.3568 9.42004C39.9315 9.87471 39.7188 10.5127 39.7188 11.334V18H35.9568V5.72404H39.7188V7.35204C40.1001 6.80937 40.6135 6.38404 41.2588 6.07604C41.9041 5.75337 42.6301 5.59204 43.4368 5.59204Z" fill="#161616"/>
<path id="Vector_6" d="M20.2771 11.8399C20.2771 10.5785 20.5118 9.47119 20.9811 8.51785C21.4651 7.56452 22.1178 6.83119 22.9391 6.31785C23.7604 5.80452 24.6771 5.54785 25.6891 5.54785C26.5544 5.54785 27.3098 5.72385 27.9551 6.07585C28.6151 6.42785 29.1211 6.88985 29.4731 7.46185V5.72385H33.2351V17.9999H29.4731V16.2619C29.1064 16.8339 28.5931 17.2959 27.9331 17.6479C27.2878 17.9999 26.5324 18.1759 25.6671 18.1759C24.6698 18.1759 23.7604 17.9192 22.9391 17.4059C22.1178 16.8779 21.4651 16.1372 20.9811 15.1839C20.5118 14.2159 20.2771 13.1012 20.2771 11.8399ZM29.4731 11.8619C29.4731 10.9232 29.2091 10.1825 28.6811 9.63985C28.1678 9.09718 27.5371 8.82585 26.7891 8.82585C26.0411 8.82585 25.4031 9.09718 24.8751 9.63985C24.3618 10.1679 24.1051 10.9012 24.1051 11.8399C24.1051 12.7785 24.3618 13.5265 24.8751 14.0839C25.4031 14.6265 26.0411 14.8979 26.7891 14.8979C27.5371 14.8979 28.1678 14.6265 28.6811 14.0839C29.2091 13.5412 29.4731 12.8005 29.4731 11.8619Z" fill="#161616"/>
<path id="Vector_7" d="M18.3198 2.55591V17.9999H14.5578V8.73791L11.1038 17.9999H8.06783L4.59183 8.71591V17.9999H0.829834V2.55591H5.27383L9.60783 13.2479L13.8978 2.55591H18.3198Z" fill="#161616"/>
</g>
<defs>
<linearGradient id="paint0_linear_210_2329" x1="76.7249" y1="15.0028" x2="82.8989" y2="15.66" gradientUnits="userSpaceOnUse">
<stop stop-color="#6557FF"/>
<stop offset="0.453125" stop-color="#AA3FFF"/>
<stop offset="1" stop-color="#F8522E"/>
</linearGradient>
</defs>
</svg>
